<svg version="1" xmlns="http://www.w3.org/2000/svg" width="1333.333" height="1333.333" viewBox="0 0 1000.000000 1000.000000"><path d="M0 500v500h1000V0H0v500zm354.5-214c117.4 6.9 182.9 36.1 212.7 94.7 12.4 24.3 17.8 49.6 17.8 83.1-.1 44-10.6 77.2-33.8 106.4-18.9 23.8-49.3 41.6-82.7 48.5-7.5 1.5-8.5 2-8.5 3.9 0 1.7.8 2.3 3.8 2.8 2 .4 8.9 2 15.2 3.6 52.8 13.3 88.5 38.6 108.3 76.9 12.9 25 18.7 52.1 18.7 87.9 0 35.2-5.8 63.2-18.6 90.2-17.3 36.2-46.1 64.6-86.4 84.9-21.9 11.1-41 17.5-68.5 23-33.7 6.7-26.7 6.5-190.2 6.8l-148.3.4V285h121.8c68.9 0 129.1.5 138.7 1zm539 456.7c-.3 1-31.5 59-69.2 129L755.7 999h-27.8c-15.4 0-27.9-.3-27.9-.7 0-.4 31.1-58.4 69.2-129L838.4 741h27.9c26.1 0 27.9.1 27.2 1.7zm104 0c-.3 1-31.5 59-69.2 129L859.7 999h-27.8c-15.4 0-27.9-.3-27.9-.7 0-.4 31.1-58.4 69.2-129L942.4 741h27.9c26.1 0 27.9.1 27.2 1.7z"/><path d="M211 481.4V580h60.8c76.7 0 94.8-1.2 120.5-7.6 31.5-7.9 51-22 61.4-44.3 7.5-16.1 11.3-40.8 9.3-60.6-5.1-50.1-35.7-73.7-106.5-82.1-10-1.2-28.3-1.7-79.2-2.1l-66.3-.5v98.6zM211 787.9V901h65.8c36.1 0 72-.5 79.7-1 50.2-3.6 85.8-18.3 104.9-43.3 14.3-18.8 20.8-41.3 20.9-71.7.1-64.3-34.5-97.4-112.5-107.6-10-1.3-25.8-1.7-85.5-2.1l-73.3-.5v113.1z"/></svg>